<mxfile host="app.diagrams.net" modified="2022-10-04T21:49:07.369Z" agent="5.0 (Macintosh; Intel Mac OS X 10_15_7) AppleWebKit/605.1.15 (KHTML, like Gecko) Version/16.0 Safari/605.1.15" etag="TSvcJWa2x0Lawvvc2DoU" version="20.4.0" type="github">
  <diagram name="Page-1" id="c37626ed-c26b-45fb-9056-f9ebc6bb27b6">
    <mxGraphModel dx="2326" dy="833" grid="1" gridSize="10" guides="1" tooltips="1" connect="1" arrows="1" fold="1" page="1" pageScale="1" pageWidth="1100" pageHeight="850" background="#114B5F" math="0" shadow="0">
      <root>
        <mxCell id="0" />
        <mxCell id="1" parent="0" />
        <mxCell id="NnfCAk8zv-3JRe5zBgoG-8" style="edgeStyle=orthogonalEdgeStyle;rounded=0;orthogonalLoop=1;jettySize=auto;html=1;exitX=0.98;exitY=0.98;exitDx=0;exitDy=0;exitPerimeter=0;entryX=0;entryY=0.5;entryDx=0;entryDy=0;labelBackgroundColor=#114B5F;strokeColor=#028090;fontColor=#E4FDE1;" edge="1" parent="1" source="NnfCAk8zv-3JRe5zBgoG-1" target="NnfCAk8zv-3JRe5zBgoG-9">
          <mxGeometry relative="1" as="geometry">
            <mxPoint x="440" y="429" as="targetPoint" />
          </mxGeometry>
        </mxCell>
        <mxCell id="NnfCAk8zv-3JRe5zBgoG-26" value="Want to send or receive message" style="edgeLabel;html=1;align=center;verticalAlign=middle;resizable=0;points=[];labelBackgroundColor=#114B5F;fontColor=#E4FDE1;" vertex="1" connectable="0" parent="NnfCAk8zv-3JRe5zBgoG-8">
          <mxGeometry x="-0.088" y="-4" relative="1" as="geometry">
            <mxPoint x="2" as="offset" />
          </mxGeometry>
        </mxCell>
        <mxCell id="NnfCAk8zv-3JRe5zBgoG-1" value="" style="sketch=0;aspect=fixed;pointerEvents=1;shadow=0;dashed=0;html=1;strokeColor=none;labelPosition=center;verticalLabelPosition=bottom;verticalAlign=top;align=center;fillColor=#F45B69;shape=mxgraph.azure.laptop;fontColor=#E4FDE1;" vertex="1" parent="1">
          <mxGeometry x="-80" y="357" width="116.67" height="70" as="geometry" />
        </mxCell>
        <mxCell id="NnfCAk8zv-3JRe5zBgoG-14" style="edgeStyle=orthogonalEdgeStyle;rounded=0;orthogonalLoop=1;jettySize=auto;html=1;exitX=0.02;exitY=0.98;exitDx=0;exitDy=0;exitPerimeter=0;entryX=1;entryY=0.5;entryDx=0;entryDy=0;labelBackgroundColor=#114B5F;strokeColor=#028090;fontColor=#E4FDE1;" edge="1" parent="1" source="NnfCAk8zv-3JRe5zBgoG-2" target="NnfCAk8zv-3JRe5zBgoG-11">
          <mxGeometry relative="1" as="geometry" />
        </mxCell>
        <mxCell id="NnfCAk8zv-3JRe5zBgoG-27" value="Want to send or receive message&lt;br&gt;" style="edgeLabel;html=1;align=center;verticalAlign=middle;resizable=0;points=[];labelBackgroundColor=#114B5F;fontColor=#E4FDE1;" vertex="1" connectable="0" parent="NnfCAk8zv-3JRe5zBgoG-14">
          <mxGeometry x="0.0988" y="3" relative="1" as="geometry">
            <mxPoint as="offset" />
          </mxGeometry>
        </mxCell>
        <mxCell id="NnfCAk8zv-3JRe5zBgoG-2" value="" style="sketch=0;aspect=fixed;pointerEvents=1;shadow=0;dashed=0;html=1;strokeColor=none;labelPosition=center;verticalLabelPosition=bottom;verticalAlign=top;align=center;fillColor=#F45B69;shape=mxgraph.azure.laptop;fontColor=#E4FDE1;" vertex="1" parent="1">
          <mxGeometry x="913" y="357" width="116.67" height="70" as="geometry" />
        </mxCell>
        <mxCell id="NnfCAk8zv-3JRe5zBgoG-18" value="Waits Until Intended IP and port are connected" style="edgeStyle=orthogonalEdgeStyle;rounded=0;orthogonalLoop=1;jettySize=auto;html=1;labelBackgroundColor=#114B5F;strokeColor=#028090;fontColor=#E4FDE1;" edge="1" parent="1" source="NnfCAk8zv-3JRe5zBgoG-5" target="NnfCAk8zv-3JRe5zBgoG-12">
          <mxGeometry relative="1" as="geometry" />
        </mxCell>
        <mxCell id="NnfCAk8zv-3JRe5zBgoG-5" value="&lt;p style=&quot;line-height: 0;&quot;&gt;&lt;br&gt;&lt;/p&gt;" style="aspect=fixed;perimeter=ellipsePerimeter;html=1;align=center;shadow=0;dashed=0;spacingTop=3;image;image=img/lib/active_directory/internet_cloud.svg;labelBackgroundColor=#114B5F;fillColor=#F45B69;strokeColor=#028090;fontColor=#E4FDE1;" vertex="1" parent="1">
          <mxGeometry x="375" y="70" width="209" height="131.67" as="geometry" />
        </mxCell>
        <mxCell id="NnfCAk8zv-3JRe5zBgoG-10" value="False" style="edgeStyle=orthogonalEdgeStyle;rounded=0;orthogonalLoop=1;jettySize=auto;html=1;entryX=0;entryY=0.5;entryDx=0;entryDy=0;labelBackgroundColor=#114B5F;strokeColor=#028090;fontColor=#E4FDE1;" edge="1" parent="1" source="NnfCAk8zv-3JRe5zBgoG-9" target="NnfCAk8zv-3JRe5zBgoG-5">
          <mxGeometry relative="1" as="geometry" />
        </mxCell>
        <mxCell id="NnfCAk8zv-3JRe5zBgoG-25" value="True" style="edgeStyle=orthogonalEdgeStyle;rounded=0;orthogonalLoop=1;jettySize=auto;html=1;exitX=1;exitY=0.5;exitDx=0;exitDy=0;labelBackgroundColor=#114B5F;strokeColor=#028090;fontColor=#E4FDE1;" edge="1" parent="1" source="NnfCAk8zv-3JRe5zBgoG-9" target="NnfCAk8zv-3JRe5zBgoG-11">
          <mxGeometry relative="1" as="geometry" />
        </mxCell>
        <mxCell id="NnfCAk8zv-3JRe5zBgoG-9" value="Is connection established" style="rhombus;whiteSpace=wrap;html=1;fillColor=#F45B69;strokeColor=#028090;fontColor=#E4FDE1;" vertex="1" parent="1">
          <mxGeometry x="230" y="385" width="180" height="80" as="geometry" />
        </mxCell>
        <mxCell id="NnfCAk8zv-3JRe5zBgoG-13" value="False" style="edgeStyle=orthogonalEdgeStyle;rounded=0;orthogonalLoop=1;jettySize=auto;html=1;entryX=1;entryY=0.5;entryDx=0;entryDy=0;labelBackgroundColor=#114B5F;strokeColor=#028090;fontColor=#E4FDE1;" edge="1" parent="1" source="NnfCAk8zv-3JRe5zBgoG-11" target="NnfCAk8zv-3JRe5zBgoG-5">
          <mxGeometry relative="1" as="geometry" />
        </mxCell>
        <mxCell id="NnfCAk8zv-3JRe5zBgoG-24" style="edgeStyle=orthogonalEdgeStyle;rounded=0;orthogonalLoop=1;jettySize=auto;html=1;exitX=0;exitY=0.5;exitDx=0;exitDy=0;entryX=1;entryY=0.5;entryDx=0;entryDy=0;labelBackgroundColor=#114B5F;strokeColor=#028090;fontColor=#E4FDE1;" edge="1" parent="1" source="NnfCAk8zv-3JRe5zBgoG-11" target="NnfCAk8zv-3JRe5zBgoG-9">
          <mxGeometry relative="1" as="geometry" />
        </mxCell>
        <mxCell id="NnfCAk8zv-3JRe5zBgoG-11" value="Is connection established" style="rhombus;whiteSpace=wrap;html=1;fillColor=#F45B69;strokeColor=#028090;fontColor=#E4FDE1;" vertex="1" parent="1">
          <mxGeometry x="540" y="385" width="180" height="80" as="geometry" />
        </mxCell>
        <mxCell id="NnfCAk8zv-3JRe5zBgoG-22" value="Port Hole Punching" style="edgeStyle=orthogonalEdgeStyle;rounded=0;orthogonalLoop=1;jettySize=auto;html=1;exitX=0;exitY=0.5;exitDx=0;exitDy=0;entryX=0.5;entryY=0;entryDx=0;entryDy=0;entryPerimeter=0;labelBackgroundColor=#114B5F;strokeColor=#028090;fontColor=#E4FDE1;" edge="1" parent="1" source="NnfCAk8zv-3JRe5zBgoG-12" target="NnfCAk8zv-3JRe5zBgoG-1">
          <mxGeometry relative="1" as="geometry" />
        </mxCell>
        <mxCell id="NnfCAk8zv-3JRe5zBgoG-23" value="Port Hole Punching" style="edgeStyle=orthogonalEdgeStyle;rounded=0;orthogonalLoop=1;jettySize=auto;html=1;exitX=1;exitY=0.5;exitDx=0;exitDy=0;entryX=0.5;entryY=0;entryDx=0;entryDy=0;entryPerimeter=0;labelBackgroundColor=#114B5F;strokeColor=#028090;fontColor=#E4FDE1;" edge="1" parent="1" source="NnfCAk8zv-3JRe5zBgoG-12" target="NnfCAk8zv-3JRe5zBgoG-2">
          <mxGeometry relative="1" as="geometry" />
        </mxCell>
        <mxCell id="NnfCAk8zv-3JRe5zBgoG-12" value="Two Devices Connected" style="rhombus;whiteSpace=wrap;html=1;fillColor=#F45B69;strokeColor=#028090;fontColor=#E4FDE1;" vertex="1" parent="1">
          <mxGeometry x="377.5" y="250" width="204" height="80" as="geometry" />
        </mxCell>
        <mxCell id="NnfCAk8zv-3JRe5zBgoG-17" value="&lt;span data-noir-inline-background-color=&quot;&quot; style=&quot;background-color: rgb(255, 255, 255); --noir-inline-background-color: #000000;&quot;&gt;&lt;font color=&quot;#000000&quot;&gt;Temporary Server&lt;/font&gt;&lt;/span&gt;" style="text;html=1;strokeColor=none;fillColor=none;align=center;verticalAlign=middle;whiteSpace=wrap;rounded=0;fontColor=#E4FDE1;" vertex="1" parent="1">
          <mxGeometry x="426" y="120.83" width="108" height="30" as="geometry" />
        </mxCell>
      </root>
    </mxGraphModel>
  </diagram>
</mxfile>
